<?xml version="1.0" encoding="UTF-8"?>
<svg version="1.1" xmlns="http://www.w3.org/2000/svg" width="32" height="32">
<path d="M0 0 C0.68897156 8.26765866 -1.47993621 13.21990432 -6 20 C-6.66 20 -7.32 20 -8 20 C-7.896875 20.86625 -7.79375 21.7325 -7.6875 22.625 C-8.12364959 27.33541562 -9.60034369 28.75487352 -13 32 C-14.32 32 -15.64 32 -17 32 C-17 30.68 -17 29.36 -17 28 C-18.28197266 28.34224609 -18.28197266 28.34224609 -19.58984375 28.69140625 C-20.69457031 28.97886719 -21.79929687 29.26632813 -22.9375 29.5625 C-24.59072266 29.99755859 -24.59072266 29.99755859 -26.27734375 30.44140625 C-27.17582031 30.62574219 -28.07429688 30.81007813 -29 31 C-30 30 -30 30 -30.1875 27.1875 C-30.00523973 24.08907533 -29.50318762 22.63057834 -28 20 C-28 19.34 -28 18.68 -28 18 C-29.32 17.67 -30.64 17.34 -32 17 C-31.72072948 13.64875378 -31.25148468 12.25888128 -28.875 9.8125 C-25.65018433 7.77946403 -22.65123661 7.04321046 -19 6 C-17.30225062 4.70647667 -15.63260714 3.37482707 -14 2 C-9.47321015 -0.51488325 -5.03424708 -0.19742145 0 0 Z " fill="#C9E2F3" transform="translate(32,0)"/>
<path d="M0 0 C-0.350625 0.7425 -0.70125 1.485 -1.0625 2.25 C-2.0912244 5.26759156 -2.04579821 6.08630553 -1 9 C0.69331383 11.38457169 2.60033076 13.3231227 5 15 C7.68805807 15.09616096 7.68805807 15.09616096 10 14 C10.99 13.67 11.98 13.34 13 13 C12.70673279 16.81247372 12.49869932 19.3293354 10.1875 22.4375 C8 24 8 24 4 24 C4 22.68 4 21.36 4 20 C2.71802734 20.34224609 2.71802734 20.34224609 1.41015625 20.69140625 C0.30542969 20.97886719 -0.79929687 21.26632813 -1.9375 21.5625 C-3.59072266 21.99755859 -3.59072266 21.99755859 -5.27734375 22.44140625 C-6.17582031 22.62574219 -7.07429687 22.81007813 -8 23 C-9 22 -9 22 -9.1875 19.1875 C-9.00523973 16.08907533 -8.50318762 14.63057834 -7 12 C-7 11.34 -7 10.68 -7 10 C-8.32 9.67 -9.64 9.34 -11 9 C-10.71180351 5.54164207 -10.21034962 4.21619267 -7.75 1.6875 C-4.7990854 -0.12328851 -3.38489309 -0.38684492 0 0 Z " fill="#FA193D" transform="translate(11,8)"/>
<path d="M0 0 C2.29335142 1.22858112 2.82736896 2.55403647 3.75 4.9375 C0.98776722 7.69973278 -1.45706617 7.51606291 -5.25 7.9375 C-5.4046875 9.5771875 -5.4046875 9.5771875 -5.5625 11.25 C-6.25 14.9375 -6.25 14.9375 -7.5625 16.9375 C-9.25 17.9375 -9.25 17.9375 -11.3125 17.75 C-13.25 16.9375 -13.25 16.9375 -15.25 14.9375 C-15.25 10.41664148 -12.83863727 7.71410881 -9.93359375 4.5234375 C-6.98424273 1.74516252 -4.12339557 -0.11453877 0 0 Z " fill="#DEEAF3" transform="translate(23.25,1.0625)"/>
<path d="M0 0 C3.71368887 1.23789629 4.77354181 2.85224877 7 6 C7 6.66 7 7.32 7 8 C2.545 9.485 2.545 9.485 -2 11 C-3 10 -3 10 -3.25 7.1875 C-2.97826344 3.72285889 -2.31309135 2.50584896 0 0 Z " fill="#F6E75D" transform="translate(5,20)"/>
<path d="M0 0 C-1.19899698 3.0831351 -2.47700477 6.06279492 -4 9 C-6.31 9 -8.62 9 -11 9 C-10.71180351 5.54164207 -10.21034962 4.21619267 -7.75 1.6875 C-4.7990854 -0.12328851 -3.38489309 -0.38684492 0 0 Z " fill="#FB5A5A" transform="translate(11,8)"/>
<path d="M0 0 C3.86441181 1.3325558 6.45259489 3.87033087 9 7 C8.8125 9.8125 8.8125 9.8125 8 12 C7.01 12 6.02 12 5 12 C3.71875 10.50390625 3.71875 10.50390625 2.5 8.5625 C0.53380379 5.40503705 0.53380379 5.40503705 -3 4 C-2.67 3.01 -2.34 2.02 -2 1 C-1.34 0.67 -0.68 0.34 0 0 Z " fill="#183967" transform="translate(7,16)"/>
<path d="M0 0 C2.97 0 5.94 0 9 0 C9 2.97 9 5.94 9 9 C4.56620325 6.78310162 2.53363068 4.22271781 0 0 Z " fill="#FE5355" transform="translate(23,0)"/>
<path d="M0 0 C1.66611905 -0.042721 3.33382885 -0.04063832 5 0 C6 1 6 1 6.0625 3.5625 C6.041875 4.366875 6.02125 5.17125 6 6 C3.625 6.625 3.625 6.625 1 7 C0.34 6.34 -0.32 5.68 -1 5 C-0.625 2.375 -0.625 2.375 0 0 Z " fill="#17586E" transform="translate(18,8)"/>
<path d="M0 0 C1.32 0.66 2.64 1.32 4 2 C4 2.66 4 3.32 4 4 C-0.455 5.485 -0.455 5.485 -5 7 C-3.38262276 3.76524552 -2.52370777 2.29427979 0 0 Z " fill="#FBC40A" transform="translate(8,24)"/>
<path d="M0 0 C1.32 0.99 2.64 1.98 4 3 C3.67 4.65 3.34 6.3 3 8 C2.01 8 1.02 8 0 8 C-2 5 -2 5 -1.6875 2.875 C-1 1 -1 1 0 0 Z " fill="#081036" transform="translate(12,20)"/>
<path d="M0 0 C0.33 0 0.66 0 1 0 C1 2.64 1 5.28 1 8 C-0.32 7.01 -1.64 6.02 -3 5 C-1.125 1.125 -1.125 1.125 0 0 Z " fill="#FF1536" transform="translate(31,1)"/>
</svg>
